PathFileType	4	(X/Y/Z)	2014001\dynamic\2014001_C1_02.trc
DataRate	CameraRate	NumFrames	NumMarkers	Units	OrigDataRate	OrigDataStartFrame	OrigNumFrames
100.000000	100.000000	4	52	mm	100.000000	213	426
Frame#	Time	L_IAS			L_IPS			R_IPS			R_IAS			L_FTC			L_FLE			L_FME			L_FAX			L_TTC			L_FAL			L_TAM			L_FCC			L_FM1			L_FM2			L_FM5			R_FTC			R_FLE			R_FME			R_FAX			R_TTC			R_FAL			R_TAM			R_FCC			R_FM1			R_FM2			R_FM5			CV7			TV10			SXS			SJN			L_SIA			L_SRS			L_SAA			L_SAE			L_HLE			L_HME			L_UOA			L_RSP			L_UHE			L_HM2			L_HM5			R_SIA			R_SRS			R_SAA			R_SAE			R_HLE			R_HME			R_UOA			R_RSP			R_UHE			R_HM2			R_HM5			
		X1	Y1	Z1	X2	Y2	Z2	X3	Y3	Z3	X4	Y4	Z4	X5	Y5	Z5	X6	Y6	Z6	X7	Y7	Z7	X8	Y8	Z8	X9	Y9	Z9	X10	Y10	Z10	X11	Y11	Z11	X12	Y12	Z12	X13	Y13	Z13	X14	Y14	Z14	X15	Y15	Z15	X16	Y16	Z16	X17	Y17	Z17	X18	Y18	Z18	X19	Y19	Z19	X20	Y20	Z20	X21	Y21	Z21	X22	Y22	Z22	X23	Y23	Z23	X24	Y24	Z24	X25	Y25	Z25	X26	Y26	Z26	X27	Y27	Z27	X28	Y28	Z28	X29	Y29	Z29	X30	Y30	Z30	X31	Y31	Z31	X32	Y32	Z32	X33	Y33	Z33	X34	Y34	Z34	X35	Y35	Z35	X36	Y36	Z36	X37	Y37	Z37	X38	Y38	Z38	X39	Y39	Z39	X40	Y40	Z40	X41	Y41	Z41	X42	Y42	Z42	X43	Y43	Z43	X44	Y44	Z44	X45	Y45	Z45	X46	Y46	Z46	X47	Y47	Z47	X48	Y48	Z48	X49	Y49	Z49	X50	Y50	Z50	X51	Y51	Z51	X52	Y52	Z52	

214	2.13	294.6675109863282	903.971557617188	730.513854980469	223.0745697021486	927.718627929688	548.9783325195315	133.9922485351563	918.9328002929692	547.5715942382815	53.26504135131839	889.618286132813	724.1353149414065	362.907440185547	819.4968261718755	658.1238403320315	383.2244262695314	471.1878967285159	726.322692871094	273.6343994140626	445.8033142089846	767.2879028320315	388.4283752441409	416.9450378417971	698.1518554687502	359.291961669922	381.4429931640626	764.3906860351565	375.0960693359376	103.4436416625977	616.2592773437502	294.6624450683595	98.76815795898443	656.688415527344	324.639862060547	63.98705673217776	576.566833496094	341.4969787597657	42.04964828491212	753.2148437500002	398.8050231933596	54.17112731933597	745.948181152344	426.8145751953127	46.74561691284181	691.5020751953127	12.18553161621094	794.0732421875005	623.573913574219	58.96988296508792	444.6672668457034	634.0155029296877	172.8166046142579	439.5061645507815	668.0267333984377	62.54608535766604	378.1152648925782	615.8833007812502	100.4595794677735	377.6382141113282	686.8022460937502	130.5760955810547	63.42986297607425	607.8538818359377	204.3717346191407	92.483512878418	652.6932373046877	192.8835906982423	22.94066047668458	577.784606933594	193.466278076172	56.36182785034183	758.3582763671877	135.9635009765626	48.28800582885745	761.3779907226565	96.1866073608399	21.86803245544434	711.1892700195315	116.5016174316407	1388.880859375	568.2358398437502	155.0643005371094	1156.88232421875	510.8005676269534	147.6672058105469	1166.978515625	742.2315673828127	124.463005065918	1326.563232421875	694.7402954101565	244.9578247070314	1208.56591796875	511.143005371094	218.8153381347657	1339.003051757813	526.158630371094	322.5643310546876	1350.448486328125	611.4280395507815	303.1722717285157	1359.429809570313	650.1295166015627	409.0143127441409	1082.444580078125	623.9390258789065	338.3998107910157	1044.525634765625	591.4788818359377	389.2093505859377	1045.315063476563	590.038269042969	373.7413635253907	858.0855102539067	734.4212646484377	445.299499511719	854.7401733398442	694.3494262695315	383.2534179687501	782.2803344726567	774.1553344726567	453.1379394531252	776.7626953125005	699.241638183594	33.88073730468751	1182.638305664063	502.7624206542971	39.91316986083986	1307.873413085938	525.834899902344	-63.95686721801761	1292.819458007813	602.4812622070315	-53.01350784301761	1298.65234375	652.1164550781252	-98.03166198730474	991.2683105468755	622.5161743164065	-19.79178619384766	977.9597778320317	600.1130981445315	-65.516716003418	966.2817382812505	596.4750976562502	-56.46474838256839	805.0877075195317	755.3462524414065	-113.4440002441407	788.217651367188	699.2618408203127	-68.23822021484378	722.209411621094	799.1926879882817	-105.6096725463868	709.686462402344	703.3782958984377	
215	2.14	294.2014160156251	904.1413574218755	732.4589843750002	222.8023223876954	927.3584594726567	550.8181762695315	133.7542877197266	918.4641723632817	549.4069824218752	52.85433578491214	889.4916992187505	725.847106933594	362.755096435547	819.5512695312505	660.1574707031252	382.5648193359376	471.4869689941409	730.994079589844	273.1618652343751	446.5941162109377	772.1148071289067	387.8265686035159	416.7489318847659	703.6965942382815	358.7205810546876	382.3569335937501	770.6895141601567	375.1221923828126	101.5697860717774	628.0566406250002	294.8504943847657	97.76303100585943	668.7552490234377	324.6551513671876	61.3868103027344	589.2525634765627	341.9559631347657	42.66786956787111	766.3278808593752	399.2594299316409	54.62700653076175	758.6848144531252	427.117126464844	46.27368927001955	704.2650146484377	11.916259765625	793.7031860351567	625.4893188476565	59.03564834594729	444.4978332519534	635.7465820312502	172.9668273925782	439.3559875488284	669.2030029296877	62.58159637451175	377.9672851562501	617.535827636719	100.9225997924805	377.3878784179689	688.2437133789065	130.8672790527344	63.46514129638675	608.3409423828127	204.9258880615236	92.25000762939456	652.997741699219	192.9953002929689	22.88821983337403	577.7841796875002	193.9678192138673	55.17007064819339	758.628845214844	136.4150848388672	47.71075439453126	761.610290527344	96.21569824218756	21.90441131591798	711.1574707031252	116.0110473632813	1388.676635742188	569.9536132812502	154.8095397949219	1156.73681640625	512.468444824219	147.1402740478516	1166.73388671875	743.9117431640627	123.8828964233399	1326.31201171875	696.432067871094	244.6400756835939	1208.456665039063	512.962585449219	218.4258880615236	1338.878540039063	527.9803466796877	322.0711059570314	1350.379760742188	613.375427246094	302.6431274414064	1359.3271484375	652.0672607421877	408.6081848144534	1082.40869140625	625.7128906250002	338.0432739257814	1044.512084960938	593.104919433594	388.837341308594	1045.357055664063	591.724548339844	373.4461059570314	857.692749023438	735.5167236328127	445.0309753417971	854.5198364257817	695.4372558593752	383.0330505371095	781.7207031250005	774.971069335938	452.8977966308596	776.527709960938	700.017272949219	33.62716293334962	1182.502319335938	504.1824035644534	39.5284881591797	1307.6552734375	527.424011230469	-64.41756439208987	1292.439819335938	603.971862792969	-53.53747940063479	1298.217163085938	653.6345214843752	-97.90023803710943	990.8493652343755	622.9915161132815	-19.58657836914063	977.7856445312505	600.5286254882815	-65.30731201171878	966.2202758789067	596.6771240234377	-56.50997543334964	803.475219726563	754.2823486328127	-113.3461685180665	787.168579101563	697.660583496094	-68.3818054199219	720.1085205078127	797.098266601563	-105.5532989501954	708.552429199219	701.078552246094	
216	2.15	293.7407226562501	904.2539062500005	734.344421386719	222.5266723632814	926.9839477539067	552.619323730469	133.5176086425782	917.969848632813	551.238464355469	52.448600769043	889.3366088867192	727.5564575195315	362.6106872558595	819.5471801757817	662.1574707031252	381.863494873047	471.7613525390627	735.6340942382815	272.6378479003907	447.4090881347659	776.9069213867192	387.1813659667971	416.5313415527346	709.2136840820315	358.0715942382814	383.2666931152345	776.9562988281255	375.0207824707032	99.78356170654303	639.844909667969	294.9232482910157	96.89432525634771	680.8168945312502	324.5137329101564	58.94020462036136	601.9166259765627	342.3081665039064	43.38788223266603	779.380737304688	399.6014709472659	55.16957855224612	771.3692016601567	427.3007812500002	45.89521408081056	716.9795532226565	11.64628314971924	793.292846679688	627.4394531250002	59.131950378418	444.282409667969	637.6430664062502	173.1968994140626	439.1907043457034	670.3167724609377	62.63375091552737	377.7806701660157	619.3657226562502	101.5111083984376	377.1111755371095	689.7940063476565	131.1996612548829	63.49713134765628	608.902770996094	205.5596618652345	91.97760772705081	653.3670043945315	193.1351013183595	22.82871246337891	577.8137817382815	194.5864257812501	53.74931335449222	758.9365844726565	136.9459075927735	47.05158615112306	761.9038696289065	96.26860046386724	21.95354652404786	711.1262207031252	115.5838928222657	1388.456298828125	571.668151855469	154.5761108398438	1156.562255859375	514.1378173828127	146.6589813232422	1166.47216796875	745.5917968750002	123.3691558837891	1326.043334960938	698.1199340820315	244.3470153808595	1208.30126953125	514.7661743164065	218.0834503173829	1338.711547851563	529.785827636719	321.6362609863282	1350.259521484375	615.2846679687502	302.1849060058595	1359.179077148438	653.9714355468752	408.2404479980471	1082.314331054688	627.4157714843752	337.7173461914064	1044.446166992188	594.6741333007815	388.4968261718752	1045.33154296875	593.349060058594	373.1538391113282	857.2969360351567	736.6289672851565	444.7318420410159	854.2385253906255	696.543151855469	382.7966918945314	781.180297851563	775.8588256835942	452.5840759277346	776.2305297851567	700.8215332031252	33.40822601318361	1182.349975585938	505.6084899902346	39.19617843627931	1307.42529296875	529.012878417969	-64.81873321533206	1292.066162109375	605.4635009765627	-54.00609970092776	1297.793823242188	655.156921386719	-97.73136138916021	990.4465942382817	623.4685058593752	-19.35416793823243	977.6330566406255	600.939392089844	-65.06536102294925	966.1875610351567	596.8757934570315	-56.51883697509768	801.8506469726567	753.1038208007815	-113.235694885254	786.1294555664067	695.9884033203127	-68.48927307128909	717.9727172851565	794.8640136718755	-105.4735641479493	707.4287109375002	698.686706542969	
217	2.16	293.2910766601564	904.310424804688	736.1627197265627	222.2448120117189	926.598022460938	554.386413574219	133.2781677246094	917.4531250000005	553.0669555664065	52.0524826049805	889.152221679688	729.2734375000002	362.4705810546876	819.4902954101567	664.1290283203127	381.1225891113282	472.0156860351565	740.246520996094	272.0579223632814	448.2529602050784	781.6666870117192	386.4953308105471	416.2933654785159	714.7042236328127	357.3463134765626	384.1794738769534	783.1821289062505	374.7946777343751	98.09918212890631	651.617614746094	294.8757324218751	96.1547470092774	692.8574218750002	324.2219848632814	56.65151977539065	614.5454101562502	342.5438232421876	44.21345520019533	792.355590820313	399.8198547363284	55.81049346923831	783.9921264648442	427.360534667969	45.62004470825197	729.644226074219	11.38012123107911	792.848266601563	629.4368896484377	59.25541305541995	444.0205383300784	639.7131958007815	173.5052337646485	439.0070495605471	671.3769531250002	62.70033645629886	377.5568847656251	621.3751220703127	102.2146911621094	376.8047790527345	691.4572753906252	131.5668334960938	63.52516937255862	609.5293579101565	206.2637023925782	91.66211700439456	653.8023681640627	193.3000488281251	22.77072334289551	577.869323730469	195.3168792724611	52.12144470214847	759.2707519531252	137.5498352050782	46.32455825805665	762.253601074219	96.34796905517584	22.01582336425782	711.096130371094	115.2181549072266	1388.2216796875	573.3839111328127	154.3588867187501	1156.361572265625	515.8098144531252	146.2200164794922	1166.192749023438	747.2751464843752	122.919303894043	1325.757690429688	699.8068847656252	244.0757598876954	1208.10205078125	516.553405761719	217.7851562500001	1338.50390625	531.5793457031252	321.2581787109376	1350.085083007813	617.159606933594	301.7957763671876	1358.9833984375	655.846374511719	407.9074707031252	1082.15771484375	629.0535888671877	337.4181518554689	1044.325073242188	596.1927490234377	388.1829528808596	1045.234741210938	594.919860839844	372.8636474609376	856.8942260742192	737.767028808594	444.4036865234377	853.8950805664067	697.6680297851565	382.5487670898439	780.6577758789067	776.8272094726567	452.2014770507815	775.8688964843755	701.6626586914065	33.22427368164064	1182.180419921875	507.0427551269534	38.91431045532228	1307.186157226563	530.6040649414065	-65.16338348388675	1291.698852539063	606.9571533203127	-54.42309951782229	1297.382202148438	656.6851196289065	-97.53093719482428	990.0614624023442	623.9516601562502	-19.10155296325684	977.5016479492192	601.3504028320315	-64.79803466796878	966.180541992188	597.0808715820315	-56.4913139343262	800.222778320313	751.809509277344	-113.1164245605469	785.106567382813	694.2659301757815	-68.55227661132815	715.8169555664065	792.5049438476567	-105.3734893798829	706.321960449219	696.2290649414065	
